<svg width="160" height="70" viewBox="0 0 160 70" fill="none" xmlns="http://www.w3.org/2000/svg">
<rect x="2" y="2" width="156" height="66" rx="33" fill="#302F34" stroke="#787680" stroke-width="4"/>
<path d="M32.8182 47V23.7273H40.9545C42.5758 23.7273 43.9129 24.0076 44.9659 24.5682C46.0189 25.1212 46.803 25.8674 47.3182 26.8068C47.8333 27.7386 48.0909 28.7727 48.0909 29.9091C48.0909 30.9091 47.9129 31.7348 47.5568 32.3864C47.2083 33.0379 46.7462 33.553 46.1705 33.9318C45.6023 34.3106 44.9848 34.5909 44.3182 34.7727V35C45.0303 35.0455 45.7462 35.2955 46.4659 35.75C47.1856 36.2045 47.7879 36.8561 48.2727 37.7045C48.7576 38.553 49 39.5909 49 40.8182C49 41.9848 48.7348 43.0341 48.2045 43.9659C47.6742 44.8977 46.8371 45.6364 45.6932 46.1818C44.5492 46.7273 43.0606 47 41.2273 47H32.8182ZM35.6364 44.5H41.2273C43.0682 44.5 44.375 44.1439 45.1477 43.4318C45.928 42.7121 46.3182 41.8409 46.3182 40.8182C46.3182 40.0303 46.1174 39.303 45.7159 38.6364C45.3144 37.9621 44.7424 37.4242 44 37.0227C43.2576 36.6136 42.3788 36.4091 41.3636 36.4091H35.6364V44.5ZM35.6364 33.9545H40.8636C41.7121 33.9545 42.4773 33.7879 43.1591 33.4545C43.8485 33.1212 44.3939 32.6515 44.7955 32.0455C45.2045 31.4394 45.4091 30.7273 45.4091 29.9091C45.4091 28.8864 45.053 28.0189 44.3409 27.3068C43.6288 26.5871 42.5 26.2273 40.9545 26.2273H35.6364V33.9545ZM64.267 39.8636V29.5455H66.9489V47H64.267V44.0455H64.0852C63.6761 44.9318 63.0398 45.6856 62.1761 46.3068C61.3125 46.9205 60.2216 47.2273 58.9034 47.2273C57.8125 47.2273 56.8428 46.9886 55.9943 46.5114C55.1458 46.0265 54.4792 45.2992 53.9943 44.3295C53.5095 43.3523 53.267 42.1212 53.267 40.6364V29.5455H55.9489V40.4545C55.9489 41.7273 56.3049 42.7424 57.017 43.5C57.7367 44.2576 58.6534 44.6364 59.767 44.6364C60.4337 44.6364 61.1117 44.4659 61.8011 44.125C62.4981 43.7841 63.0814 43.2614 63.5511 42.5568C64.0284 41.8523 64.267 40.9545 64.267 39.8636ZM79.4517 29.5455V31.8182H70.4062V29.5455H79.4517ZM73.0426 25.3636H75.7244V42C75.7244 42.7576 75.8343 43.3258 76.054 43.7045C76.2813 44.0758 76.5691 44.3258 76.9176 44.4545C77.2737 44.5758 77.6487 44.6364 78.0426 44.6364C78.3381 44.6364 78.5805 44.6212 78.7699 44.5909C78.9593 44.553 79.1108 44.5227 79.2244 44.5L79.7699 46.9091C79.5881 46.9773 79.3343 47.0455 79.0085 47.1136C78.6828 47.1894 78.2699 47.2273 77.7699 47.2273C77.0123 47.2273 76.2699 47.0644 75.5426 46.7386C74.8229 46.4129 74.2244 45.9167 73.7472 45.25C73.2775 44.5833 73.0426 43.7424 73.0426 42.7273V25.3636ZM91.0767 29.5455V31.8182H82.0312V29.5455H91.0767ZM84.6676 25.3636H87.3494V42C87.3494 42.7576 87.4593 43.3258 87.679 43.7045C87.9063 44.0758 88.1941 44.3258 88.5426 44.4545C88.8987 44.5758 89.2737 44.6364 89.6676 44.6364C89.9631 44.6364 90.2055 44.6212 90.3949 44.5909C90.5843 44.553 90.7358 44.5227 90.8494 44.5L91.3949 46.9091C91.2131 46.9773 90.9593 47.0455 90.6335 47.1136C90.3078 47.1894 89.8949 47.2273 89.3949 47.2273C88.6373 47.2273 87.8949 47.0644 87.1676 46.7386C86.4479 46.4129 85.8494 45.9167 85.3722 45.25C84.9025 44.5833 84.6676 43.7424 84.6676 42.7273V25.3636ZM102.014 47.3636C100.438 47.3636 99.0559 46.9886 97.8665 46.2386C96.6847 45.4886 95.7604 44.4394 95.0938 43.0909C94.4347 41.7424 94.1051 40.1667 94.1051 38.3636C94.1051 36.5455 94.4347 34.9583 95.0938 33.6023C95.7604 32.2462 96.6847 31.1932 97.8665 30.4432C99.0559 29.6932 100.438 29.3182 102.014 29.3182C103.59 29.3182 104.969 29.6932 106.151 30.4432C107.34 31.1932 108.264 32.2462 108.923 33.6023C109.59 34.9583 109.923 36.5455 109.923 38.3636C109.923 40.1667 109.59 41.7424 108.923 43.0909C108.264 44.4394 107.34 45.4886 106.151 46.2386C104.969 46.9886 103.59 47.3636 102.014 47.3636ZM102.014 44.9545C103.211 44.9545 104.196 44.6477 104.969 44.0341C105.741 43.4205 106.313 42.6136 106.685 41.6136C107.056 40.6136 107.241 39.5303 107.241 38.3636C107.241 37.197 107.056 36.1098 106.685 35.1023C106.313 34.0947 105.741 33.2803 104.969 32.6591C104.196 32.0379 103.211 31.7273 102.014 31.7273C100.817 31.7273 99.8324 32.0379 99.0597 32.6591C98.2869 33.2803 97.715 34.0947 97.3438 35.1023C96.9725 36.1098 96.7869 37.197 96.7869 38.3636C96.7869 39.5303 96.9725 40.6136 97.3438 41.6136C97.715 42.6136 98.2869 43.4205 99.0597 44.0341C99.8324 44.6477 100.817 44.9545 102.014 44.9545ZM116.699 36.5V47H114.017V29.5455H116.608V32.2727H116.835C117.244 31.3864 117.866 30.6742 118.699 30.1364C119.532 29.5909 120.608 29.3182 121.926 29.3182C123.108 29.3182 124.142 29.5606 125.028 30.0455C125.915 30.5227 126.604 31.25 127.097 32.2273C127.589 33.197 127.835 34.4242 127.835 35.9091V47H125.153V36.0909C125.153 34.7197 124.797 33.6515 124.085 32.8864C123.373 32.1136 122.396 31.7273 121.153 31.7273C120.297 31.7273 119.532 31.9129 118.858 32.2841C118.191 32.6553 117.665 33.197 117.278 33.9091C116.892 34.6212 116.699 35.4848 116.699 36.5Z" fill="white"/>
</svg>
